<svg width="284" height="191" viewBox="0 0 284 191" fill="none" xmlns="http://www.w3.org/2000/svg">
<path d="M0 0H93.5C146.243 0 189 43.2594 189 96.0026V96.0026C189 148.194 146.691 191 94.5 191V191C42.3091 191 0 148.691 0 96.5V0Z" fill="white"/>
<path d="M194 92C267.184 88.9109 284.486 30.7129 283.99 2H194V92Z" fill="white"/>
<path d="M194 99C267.184 102.055 284.486 159.606 283.99 188H194V99Z" fill="white"/>
<path d="M30.14 89.144C28.268 89.144 26.588 88.712 25.1 87.848C23.612 86.96 22.436 85.76 21.572 84.248C20.708 82.736 20.264 81.032 20.24 79.136V62.72C20.24 62.168 20.408 61.724 20.744 61.388C21.104 61.052 21.548 60.884 22.076 60.884C22.628 60.884 23.072 61.052 23.408 61.388C23.744 61.724 23.912 62.168 23.912 62.72V72.44C24.752 71.432 25.76 70.64 26.936 70.064C28.136 69.464 29.444 69.164 30.86 69.164C32.612 69.164 34.184 69.608 35.576 70.496C36.968 71.36 38.06 72.548 38.852 74.06C39.668 75.548 40.076 77.24 40.076 79.136C40.076 81.032 39.632 82.736 38.744 84.248C37.88 85.76 36.704 86.96 35.216 87.848C33.728 88.712 32.036 89.144 30.14 89.144ZM30.14 85.904C31.364 85.904 32.456 85.616 33.416 85.04C34.376 84.44 35.132 83.624 35.684 82.592C36.26 81.56 36.548 80.408 36.548 79.136C36.548 77.84 36.26 76.688 35.684 75.68C35.132 74.672 34.376 73.88 33.416 73.304C32.456 72.704 31.364 72.404 30.14 72.404C28.94 72.404 27.848 72.704 26.864 73.304C25.904 73.88 25.148 74.672 24.596 75.68C24.044 76.688 23.768 77.84 23.768 79.136C23.768 80.408 24.044 81.56 24.596 82.592C25.148 83.624 25.904 84.44 26.864 85.04C27.848 85.616 28.94 85.904 30.14 85.904ZM54.4805 89.144C52.5365 89.144 50.8205 88.724 49.3325 87.884C47.8445 87.02 46.6685 85.844 45.8045 84.356C44.9645 82.844 44.5445 81.116 44.5445 79.172C44.5445 77.204 44.9645 75.476 45.8045 73.988C46.6685 72.476 47.8445 71.3 49.3325 70.46C50.8205 69.596 52.5365 69.164 54.4805 69.164C56.4005 69.164 58.1045 69.596 59.5925 70.46C61.0805 71.3 62.2445 72.476 63.0845 73.988C63.9485 75.476 64.3805 77.204 64.3805 79.172C64.3805 81.116 63.9605 82.844 63.1205 84.356C62.2805 85.844 61.1165 87.02 59.6285 87.884C58.1405 88.724 56.4245 89.144 54.4805 89.144ZM54.4805 85.904C55.7285 85.904 56.8325 85.616 57.7925 85.04C58.7525 84.464 59.4965 83.672 60.0245 82.664C60.5765 81.656 60.8525 80.492 60.8525 79.172C60.8525 77.852 60.5765 76.688 60.0245 75.68C59.4965 74.648 58.7525 73.844 57.7925 73.268C56.8325 72.692 55.7285 72.404 54.4805 72.404C53.2325 72.404 52.1285 72.692 51.1685 73.268C50.2085 73.844 49.4525 74.648 48.9005 75.68C48.3485 76.688 48.0725 77.852 48.0725 79.172C48.0725 80.492 48.3485 81.656 48.9005 82.664C49.4525 83.672 50.2085 84.464 51.1685 85.04C52.1285 85.616 53.2325 85.904 54.4805 85.904ZM74.5255 89C73.4695 89 72.5335 88.712 71.7175 88.136C70.9015 87.56 70.2655 86.78 69.8095 85.796C69.3535 84.788 69.1255 83.636 69.1255 82.34V62.684C69.1255 62.156 69.2935 61.724 69.6295 61.388C69.9655 61.052 70.3975 60.884 70.9255 60.884C71.4535 60.884 71.8855 61.052 72.2215 61.388C72.5575 61.724 72.7255 62.156 72.7255 62.684V82.34C72.7255 83.228 72.8935 83.96 73.2295 84.536C73.5655 85.112 73.9975 85.4 74.5255 85.4H75.4255C75.9055 85.4 76.2895 85.568 76.5775 85.904C76.8895 86.24 77.0455 86.672 77.0455 87.2C77.0455 87.728 76.8175 88.16 76.3615 88.496C75.9055 88.832 75.3175 89 74.5975 89H74.5255ZM88.4766 89.144C86.6046 89.144 84.9126 88.712 83.4006 87.848C81.9126 86.96 80.7246 85.76 79.8366 84.248C78.9726 82.736 78.5406 81.032 78.5406 79.136C78.5406 77.24 78.9366 75.548 79.7286 74.06C80.5446 72.548 81.6486 71.36 83.0406 70.496C84.4326 69.608 86.0046 69.164 87.7566 69.164C89.1726 69.164 90.4806 69.464 91.6806 70.064C92.8806 70.64 93.8886 71.432 94.7046 72.44V62.72C94.7046 62.168 94.8726 61.724 95.2086 61.388C95.5686 61.052 96.0126 60.884 96.5406 60.884C97.0926 60.884 97.5366 61.052 97.8726 61.388C98.2086 61.724 98.3766 62.168 98.3766 62.72V79.136C98.3766 81.032 97.9326 82.736 97.0446 84.248C96.1806 85.76 95.0046 86.96 93.5166 87.848C92.0286 88.712 90.3486 89.144 88.4766 89.144ZM88.4766 85.904C89.7006 85.904 90.7926 85.616 91.7526 85.04C92.7126 84.44 93.4686 83.624 94.0206 82.592C94.5726 81.56 94.8486 80.408 94.8486 79.136C94.8486 77.84 94.5726 76.688 94.0206 75.68C93.4686 74.672 92.7126 73.88 91.7526 73.304C90.7926 72.704 89.7006 72.404 88.4766 72.404C87.2766 72.404 86.1846 72.704 85.2006 73.304C84.2406 73.88 83.4726 74.672 82.8966 75.68C82.3446 76.688 82.0686 77.84 82.0686 79.136C82.0686 80.408 82.3446 81.56 82.8966 82.592C83.4726 83.624 84.2406 84.44 85.2006 85.04C86.1846 85.616 87.2766 85.904 88.4766 85.904Z" fill="black"/>
<path d="M59.464 112.2L57.976 110.568L65.344 103.992C65.584 103.768 65.848 103.664 66.136 103.68C66.44 103.696 66.696 103.824 66.904 104.064C67.128 104.304 67.232 104.568 67.216 104.856C67.2 105.144 67.072 105.4 66.832 105.624L59.464 112.2ZM58.336 117C57.984 117 57.696 116.896 57.472 116.688C57.264 116.464 57.16 116.176 57.16 115.824V99.432C57.16 99.08 57.264 98.8 57.472 98.592C57.696 98.368 57.984 98.256 58.336 98.256C58.688 98.256 58.968 98.368 59.176 98.592C59.4 98.8 59.512 99.08 59.512 99.432V115.824C59.512 116.176 59.4 116.464 59.176 116.688C58.968 116.896 58.688 117 58.336 117ZM66.904 116.88C66.648 117.088 66.36 117.176 66.04 117.144C65.736 117.128 65.48 116.992 65.272 116.736L60.4 110.712L62.08 109.128L67.072 115.272C67.28 115.528 67.368 115.808 67.336 116.112C67.32 116.4 67.176 116.656 66.904 116.88ZM72.0001 108.792C72.0001 107.832 72.2321 106.976 72.6961 106.224C73.1761 105.456 73.8161 104.848 74.6161 104.4C75.4161 103.952 76.2961 103.728 77.2561 103.728C78.2161 103.728 78.9281 103.888 79.3921 104.208C79.8721 104.512 80.0561 104.88 79.9441 105.312C79.8961 105.536 79.8001 105.712 79.6561 105.84C79.5281 105.952 79.3761 106.024 79.2001 106.056C79.0241 106.088 78.8321 106.08 78.6241 106.032C77.6001 105.824 76.6801 105.808 75.8641 105.984C75.0481 106.16 74.4001 106.488 73.9201 106.968C73.4561 107.448 73.2241 108.056 73.2241 108.792H72.0001ZM72.0241 117C71.6401 117 71.3441 116.904 71.1361 116.712C70.9281 116.504 70.8241 116.2 70.8241 115.8V105.072C70.8241 104.688 70.9281 104.392 71.1361 104.184C71.3441 103.976 71.6401 103.872 72.0241 103.872C72.4241 103.872 72.7201 103.976 72.9121 104.184C73.1201 104.376 73.2241 104.672 73.2241 105.072V115.8C73.2241 116.184 73.1201 116.48 72.9121 116.688C72.7201 116.896 72.4241 117 72.0241 117ZM87.703 117.096C86.375 117.096 85.191 116.816 84.151 116.256C83.127 115.68 82.319 114.896 81.727 113.904C81.151 112.896 80.863 111.744 80.863 110.448C80.863 109.136 81.135 107.984 81.679 106.992C82.239 105.984 83.007 105.2 83.983 104.64C84.959 104.064 86.079 103.776 87.343 103.776C88.591 103.776 89.663 104.056 90.559 104.616C91.455 105.16 92.135 105.92 92.599 106.896C93.079 107.856 93.319 108.968 93.319 110.232C93.319 110.536 93.215 110.792 93.007 111C92.799 111.192 92.535 111.288 92.215 111.288H82.543V109.368H92.143L91.159 110.04C91.143 109.24 90.983 108.528 90.679 107.904C90.375 107.264 89.943 106.76 89.383 106.392C88.823 106.024 88.143 105.84 87.343 105.84C86.431 105.84 85.647 106.04 84.991 106.44C84.351 106.84 83.863 107.392 83.527 108.096C83.191 108.784 83.023 109.568 83.023 110.448C83.023 111.328 83.223 112.112 83.623 112.8C84.023 113.488 84.575 114.032 85.279 114.432C85.983 114.832 86.791 115.032 87.703 115.032C88.199 115.032 88.703 114.944 89.215 114.768C89.743 114.576 90.167 114.36 90.487 114.12C90.727 113.944 90.983 113.856 91.255 113.856C91.543 113.84 91.791 113.92 91.999 114.096C92.271 114.336 92.415 114.6 92.431 114.888C92.447 115.176 92.319 115.424 92.047 115.632C91.503 116.064 90.823 116.416 90.007 116.688C89.207 116.96 88.439 117.096 87.703 117.096ZM101.445 117.096C100.277 117.096 99.2285 116.808 98.3005 116.232C97.3725 115.64 96.6365 114.848 96.0925 113.856C95.5645 112.848 95.3005 111.712 95.3005 110.448C95.3005 109.184 95.5885 108.048 96.1645 107.04C96.7565 106.032 97.5485 105.24 98.5405 104.664C99.5485 104.072 100.677 103.776 101.925 103.776C103.173 103.776 104.293 104.072 105.285 104.664C106.277 105.24 107.061 106.032 107.637 107.04C108.229 108.048 108.525 109.184 108.525 110.448H107.589C107.589 111.712 107.317 112.848 106.773 113.856C106.245 114.848 105.517 115.64 104.589 116.232C103.661 116.808 102.613 117.096 101.445 117.096ZM101.925 114.936C102.741 114.936 103.469 114.744 104.109 114.36C104.749 113.96 105.253 113.424 105.621 112.752C105.989 112.064 106.173 111.296 106.173 110.448C106.173 109.584 105.989 108.816 105.621 108.144C105.253 107.456 104.749 106.92 104.109 106.536C103.469 106.136 102.741 105.936 101.925 105.936C101.125 105.936 100.397 106.136 99.7405 106.536C99.1005 106.92 98.5885 107.456 98.2045 108.144C97.8365 108.816 97.6525 109.584 97.6525 110.448C97.6525 111.296 97.8365 112.064 98.2045 112.752C98.5885 113.424 99.1005 113.96 99.7405 114.36C100.397 114.744 101.125 114.936 101.925 114.936ZM107.301 117.024C106.949 117.024 106.653 116.912 106.413 116.688C106.189 116.448 106.077 116.152 106.077 115.8V112.128L106.533 109.584L108.525 110.448V115.8C108.525 116.152 108.405 116.448 108.165 116.688C107.941 116.912 107.653 117.024 107.301 117.024ZM116.944 117C116.144 117 115.424 116.8 114.784 116.4C114.144 115.984 113.64 115.424 113.272 114.72C112.904 114.016 112.72 113.224 112.72 112.344V100.896C112.72 100.544 112.832 100.256 113.056 100.032C113.28 99.808 113.568 99.696 113.92 99.696C114.272 99.696 114.56 99.808 114.784 100.032C115.008 100.256 115.12 100.544 115.12 100.896V112.344C115.12 112.984 115.296 113.52 115.648 113.952C116 114.384 116.432 114.6 116.944 114.6H117.76C118.048 114.6 118.288 114.712 118.48 114.936C118.688 115.16 118.792 115.448 118.792 115.8C118.792 116.152 118.656 116.44 118.384 116.664C118.128 116.888 117.792 117 117.376 117H116.944ZM111.616 106.416C111.28 106.416 111.008 106.32 110.8 106.128C110.592 105.936 110.488 105.696 110.488 105.408C110.488 105.088 110.592 104.832 110.8 104.64C111.008 104.448 111.28 104.352 111.616 104.352H117.16C117.496 104.352 117.768 104.448 117.976 104.64C118.184 104.832 118.288 105.088 118.288 105.408C118.288 105.696 118.184 105.936 117.976 106.128C117.768 106.32 117.496 106.416 117.16 106.416H111.616ZM123.265 117C122.913 117 122.617 116.888 122.377 116.664C122.153 116.424 122.041 116.128 122.041 115.776V105.096C122.041 104.728 122.153 104.432 122.377 104.208C122.617 103.984 122.913 103.872 123.265 103.872C123.633 103.872 123.929 103.984 124.153 104.208C124.377 104.432 124.489 104.728 124.489 105.096V115.776C124.489 116.128 124.377 116.424 124.153 116.664C123.929 116.888 123.633 117 123.265 117ZM123.265 101.736C122.833 101.736 122.457 101.584 122.137 101.28C121.833 100.96 121.681 100.584 121.681 100.152C121.681 99.72 121.833 99.352 122.137 99.048C122.457 98.728 122.833 98.568 123.265 98.568C123.697 98.568 124.065 98.728 124.369 99.048C124.689 99.352 124.849 99.72 124.849 100.152C124.849 100.584 124.689 100.96 124.369 101.28C124.065 101.584 123.697 101.736 123.265 101.736ZM133.483 116.976C132.987 116.976 132.603 116.712 132.331 116.184L127.243 105.456C127.115 105.184 127.099 104.92 127.195 104.664C127.307 104.392 127.515 104.184 127.819 104.04C128.091 103.896 128.363 103.872 128.635 103.968C128.923 104.064 129.139 104.248 129.283 104.52L134.035 114.768H132.883L137.587 104.52C137.731 104.248 137.947 104.064 138.235 103.968C138.539 103.872 138.843 103.896 139.147 104.04C139.435 104.168 139.627 104.368 139.723 104.64C139.819 104.912 139.803 105.184 139.675 105.456L134.587 116.184C134.347 116.712 133.979 116.976 133.483 116.976ZM147.891 117.096C146.562 117.096 145.379 116.816 144.339 116.256C143.315 115.68 142.507 114.896 141.915 113.904C141.339 112.896 141.051 111.744 141.051 110.448C141.051 109.136 141.323 107.984 141.867 106.992C142.427 105.984 143.195 105.2 144.171 104.64C145.147 104.064 146.267 103.776 147.531 103.776C148.779 103.776 149.851 104.056 150.747 104.616C151.643 105.16 152.323 105.92 152.786 106.896C153.267 107.856 153.507 108.968 153.507 110.232C153.507 110.536 153.403 110.792 153.195 111C152.987 111.192 152.723 111.288 152.403 111.288H142.73V109.368H152.331L151.347 110.04C151.331 109.24 151.171 108.528 150.867 107.904C150.563 107.264 150.131 106.76 149.571 106.392C149.011 106.024 148.331 105.84 147.531 105.84C146.619 105.84 145.835 106.04 145.179 106.44C144.539 106.84 144.051 107.392 143.715 108.096C143.379 108.784 143.211 109.568 143.211 110.448C143.211 111.328 143.411 112.112 143.811 112.8C144.211 113.488 144.763 114.032 145.467 114.432C146.171 114.832 146.979 115.032 147.891 115.032C148.387 115.032 148.891 114.944 149.403 114.768C149.931 114.576 150.355 114.36 150.675 114.12C150.915 113.944 151.171 113.856 151.443 113.856C151.731 113.84 151.979 113.92 152.187 114.096C152.459 114.336 152.603 114.6 152.619 114.888C152.635 115.176 152.507 115.424 152.234 115.632C151.691 116.064 151.011 116.416 150.195 116.688C149.395 116.96 148.627 117.096 147.891 117.096Z" fill="black"/>
</svg>
