<svg width="226" height="27" viewBox="0 0 226 27" fill="none" xmlns="http://www.w3.org/2000/svg">
<path d="M16.76 10.384C16.248 9.44533 15.544 8.73067 14.648 8.24C13.752 7.74933 12.7067 7.504 11.512 7.504C10.1893 7.504 9.016 7.80267 7.992 8.4C6.968 8.99733 6.168 9.85067 5.592 10.96C5.016 12.0693 4.728 13.3493 4.728 14.8C4.728 16.2933 5.016 17.5947 5.592 18.704C6.18933 19.8133 7.01067 20.6667 8.056 21.264C9.10133 21.8613 10.3173 22.16 11.704 22.16C13.4107 22.16 14.808 21.712 15.896 20.816C16.984 19.8987 17.6987 18.6293 18.04 17.008H10.36V13.584H22.456V17.488C22.1573 19.0453 21.5173 20.4853 20.536 21.808C19.5547 23.1307 18.2853 24.1973 16.728 25.008C15.192 25.7973 13.464 26.192 11.544 26.192C9.38933 26.192 7.43733 25.712 5.688 24.752C3.96 23.7707 2.59467 22.416 1.592 20.688C0.610667 18.96 0.12 16.9973 0.12 14.8C0.12 12.6027 0.610667 10.64 1.592 8.912C2.59467 7.16267 3.96 5.808 5.688 4.848C7.43733 3.86667 9.37867 3.376 11.512 3.376C14.0293 3.376 16.216 3.99467 18.072 5.232C19.928 6.448 21.208 8.16533 21.912 10.384H16.76Z" fill="#FDBA01"/>
<path d="M30.2505 11.024C30.8265 10.0853 31.5732 9.34933 32.4905 8.816C33.4292 8.28267 34.4958 8.016 35.6905 8.016V12.72H34.5065C33.0985 12.72 32.0318 13.0507 31.3065 13.712C30.6025 14.3733 30.2505 15.5253 30.2505 17.168V26H25.7705V8.272H30.2505V11.024ZM46.58 26.288C44.8733 26.288 43.3373 25.9147 41.972 25.168C40.6067 24.4 39.5293 23.3227 38.74 21.936C37.972 20.5493 37.588 18.9493 37.588 17.136C37.588 15.3227 37.9827 13.7227 38.772 12.336C39.5827 10.9493 40.6813 9.88267 42.068 9.136C43.4547 8.368 45.0013 7.984 46.708 7.984C48.4147 7.984 49.9613 8.368 51.348 9.136C52.7347 9.88267 53.8227 10.9493 54.612 12.336C55.4227 13.7227 55.828 15.3227 55.828 17.136C55.828 18.9493 55.412 20.5493 54.58 21.936C53.7693 23.3227 52.66 24.4 51.252 25.168C49.8653 25.9147 48.308 26.288 46.58 26.288ZM46.58 22.384C47.3907 22.384 48.148 22.192 48.852 21.808C49.5773 21.4027 50.1533 20.8053 50.58 20.016C51.0067 19.2267 51.22 18.2667 51.22 17.136C51.22 15.4507 50.772 14.16 49.876 13.264C49.0013 12.3467 47.924 11.888 46.644 11.888C45.364 11.888 44.2867 12.3467 43.412 13.264C42.5587 14.16 42.132 15.4507 42.132 17.136C42.132 18.8213 42.548 20.1227 43.38 21.04C44.2333 21.936 45.3 22.384 46.58 22.384ZM83.6903 8.272L78.5063 26H73.6743L70.4423 13.616L67.2103 26H62.3463L57.1303 8.272H61.6743L64.8103 21.776L68.2023 8.272H72.9383L76.2663 21.744L79.4023 8.272H83.6903ZM88.3863 6.16C87.5969 6.16 86.9356 5.91467 86.4023 5.424C85.8903 4.912 85.6343 4.28267 85.6343 3.536C85.6343 2.78933 85.8903 2.17067 86.4023 1.68C86.9356 1.168 87.5969 0.911999 88.3863 0.911999C89.1756 0.911999 89.8263 1.168 90.3383 1.68C90.8716 2.17067 91.1383 2.78933 91.1383 3.536C91.1383 4.28267 90.8716 4.912 90.3383 5.424C89.8263 5.91467 89.1756 6.16 88.3863 6.16ZM90.5943 8.272V26H86.1143V8.272H90.5943ZM100.237 11.952V20.528C100.237 21.1253 100.375 21.5627 100.653 21.84C100.951 22.096 101.442 22.224 102.125 22.224H104.205V26H101.389C97.6125 26 95.7245 24.1653 95.7245 20.496V11.952H93.6125V8.272H95.7245V3.888H100.237V8.272H104.205V11.952H100.237ZM117.411 8.016C118.755 8.016 119.949 8.31467 120.995 8.912C122.04 9.488 122.851 10.352 123.427 11.504C124.024 12.6347 124.323 14 124.323 15.6V26H119.843V16.208C119.843 14.8 119.491 13.7227 118.787 12.976C118.083 12.208 117.123 11.824 115.907 11.824C114.669 11.824 113.688 12.208 112.963 12.976C112.259 13.7227 111.907 14.8 111.907 16.208V26H107.427V2.32H111.907V10.48C112.483 9.712 113.251 9.11467 114.211 8.688C115.171 8.24 116.237 8.016 117.411 8.016ZM127.431 17.136C127.431 15.3013 127.804 13.7013 128.551 12.336C129.298 10.9493 130.332 9.88267 131.655 9.136C132.978 8.368 134.492 7.984 136.199 7.984C138.396 7.984 140.21 8.53867 141.639 9.648C143.09 10.736 144.06 12.272 144.551 14.256H139.719C139.463 13.488 139.026 12.8907 138.407 12.464C137.81 12.016 137.063 11.792 136.167 11.792C134.887 11.792 133.874 12.2613 133.127 13.2C132.38 14.1173 132.007 15.4293 132.007 17.136C132.007 18.8213 132.38 20.1333 133.127 21.072C133.874 21.9893 134.887 22.448 136.167 22.448C137.98 22.448 139.164 21.6373 139.719 20.016H144.551C144.06 21.936 143.09 23.4613 141.639 24.592C140.188 25.7227 138.375 26.288 136.199 26.288C134.492 26.288 132.978 25.9147 131.655 25.168C130.332 24.4 129.298 23.3333 128.551 21.968C127.804 20.5813 127.431 18.9707 127.431 17.136ZM152.313 11.024C152.889 10.0853 153.636 9.34933 154.553 8.816C155.492 8.28267 156.558 8.016 157.753 8.016V12.72H156.569C155.161 12.72 154.094 13.0507 153.369 13.712C152.665 14.3733 152.313 15.5253 152.313 17.168V26H147.833V8.272H152.313V11.024ZM177.251 16.752C177.251 17.392 177.208 17.968 177.123 18.48H164.163C164.269 19.76 164.717 20.7627 165.507 21.488C166.296 22.2133 167.267 22.576 168.419 22.576C170.083 22.576 171.267 21.8613 171.971 20.432H176.803C176.291 22.1387 175.309 23.5467 173.859 24.656C172.408 25.744 170.627 26.288 168.515 26.288C166.808 26.288 165.272 25.9147 163.907 25.168C162.563 24.4 161.507 23.3227 160.739 21.936C159.992 20.5493 159.618 18.9493 159.618 17.136C159.618 15.3013 159.992 13.6907 160.739 12.304C161.485 10.9173 162.531 9.85067 163.875 9.104C165.219 8.35733 166.765 7.984 168.515 7.984C170.2 7.984 171.704 8.34667 173.027 9.072C174.371 9.79733 175.405 10.832 176.131 12.176C176.877 13.4987 177.251 15.024 177.251 16.752ZM172.611 15.472C172.589 14.32 172.173 13.4027 171.363 12.72C170.552 12.016 169.56 11.664 168.387 11.664C167.277 11.664 166.339 12.0053 165.571 12.688C164.824 13.3493 164.365 14.2773 164.195 15.472H172.611ZM185.737 11.952V20.528C185.737 21.1253 185.875 21.5627 186.153 21.84C186.451 22.096 186.942 22.224 187.625 22.224H189.705V26H186.889C183.113 26 181.225 24.1653 181.225 20.496V11.952H179.113V8.272H181.225V3.888H185.737V8.272H189.705V11.952H185.737ZM195.199 6.16C194.409 6.16 193.748 5.91467 193.215 5.424C192.703 4.912 192.447 4.28267 192.447 3.536C192.447 2.78933 192.703 2.17067 193.215 1.68C193.748 1.168 194.409 0.911999 195.199 0.911999C195.988 0.911999 196.639 1.168 197.151 1.68C197.684 2.17067 197.951 2.78933 197.951 3.536C197.951 4.28267 197.684 4.912 197.151 5.424C196.639 5.91467 195.988 6.16 195.199 6.16ZM197.407 8.272V26H192.927V8.272H197.407ZM209.225 21.872L213.705 8.272H218.473L211.913 26H206.473L199.945 8.272H204.745L209.225 21.872ZM222.973 26.224C222.163 26.224 221.491 25.9787 220.957 25.488C220.445 24.976 220.189 24.3467 220.189 23.6C220.189 22.8533 220.445 22.2347 220.957 21.744C221.491 21.232 222.163 20.976 222.973 20.976C223.763 20.976 224.413 21.232 224.925 21.744C225.437 22.2347 225.693 22.8533 225.693 23.6C225.693 24.3467 225.437 24.976 224.925 25.488C224.413 25.9787 223.763 26.224 222.973 26.224Z" fill="white"/>
</svg>
