<svg width="116" height="79" viewBox="0 0 116 79" fill="none" xmlns="http://www.w3.org/2000/svg">
<path d="M0 0H38.1901C59.7331 0 77.1972 17.6693 77.1972 39.2123V39.2123C77.1972 60.5298 59.916 78.0141 38.5986 78.0141V78.0141C17.2812 78.0141 0 60.7329 0 39.4155V0Z" fill="white"/>
<path d="M79.2393 37.5775C109.131 36.3157 116.198 12.5447 115.996 0.816895H79.2393V37.5775Z" fill="white"/>
<path d="M79.2393 40.4366C109.131 41.6844 116.198 65.1913 115.996 76.7888H79.2393V40.4366Z" fill="white"/>
<path d="M12.015 34.044C11.443 34.044 10.9297 33.912 10.475 33.648C10.0203 33.3767 9.661 33.01 9.397 32.548C9.133 32.086 8.99733 31.5653 8.99 30.986V25.97C8.99 25.8013 9.04133 25.6657 9.144 25.563C9.254 25.4603 9.38967 25.409 9.551 25.409C9.71967 25.409 9.85533 25.4603 9.958 25.563C10.0607 25.6657 10.112 25.8013 10.112 25.97V28.94C10.3687 28.632 10.6767 28.39 11.036 28.214C11.4027 28.0307 11.8023 27.939 12.235 27.939C12.7703 27.939 13.2507 28.0747 13.676 28.346C14.1013 28.61 14.435 28.973 14.677 29.435C14.9263 29.8897 15.051 30.4067 15.051 30.986C15.051 31.5653 14.9153 32.086 14.644 32.548C14.38 33.01 14.0207 33.3767 13.566 33.648C13.1113 33.912 12.5943 34.044 12.015 34.044ZM12.015 33.054C12.389 33.054 12.7227 32.966 13.016 32.79C13.3093 32.6067 13.5403 32.3573 13.709 32.042C13.885 31.7267 13.973 31.3747 13.973 30.986C13.973 30.59 13.885 30.238 13.709 29.93C13.5403 29.622 13.3093 29.38 13.016 29.204C12.7227 29.0207 12.389 28.929 12.015 28.929C11.6483 28.929 11.3147 29.0207 11.014 29.204C10.7207 29.38 10.4897 29.622 10.321 29.93C10.1523 30.238 10.068 30.59 10.068 30.986C10.068 31.3747 10.1523 31.7267 10.321 32.042C10.4897 32.3573 10.7207 32.6067 11.014 32.79C11.3147 32.966 11.6483 33.054 12.015 33.054ZM19.4524 34.044C18.8584 34.044 18.334 33.9157 17.8794 33.659C17.4247 33.395 17.0654 33.0357 16.8014 32.581C16.5447 32.119 16.4164 31.591 16.4164 30.997C16.4164 30.3957 16.5447 29.8677 16.8014 29.413C17.0654 28.951 17.4247 28.5917 17.8794 28.335C18.334 28.071 18.8584 27.939 19.4524 27.939C20.039 27.939 20.5597 28.071 21.0144 28.335C21.469 28.5917 21.8247 28.951 22.0814 29.413C22.3454 29.8677 22.4774 30.3957 22.4774 30.997C22.4774 31.591 22.349 32.119 22.0924 32.581C21.8357 33.0357 21.48 33.395 21.0254 33.659C20.5707 33.9157 20.0464 34.044 19.4524 34.044ZM19.4524 33.054C19.8337 33.054 20.171 32.966 20.4644 32.79C20.7577 32.614 20.985 32.372 21.1464 32.064C21.315 31.756 21.3994 31.4003 21.3994 30.997C21.3994 30.5937 21.315 30.238 21.1464 29.93C20.985 29.6147 20.7577 29.369 20.4644 29.193C20.171 29.017 19.8337 28.929 19.4524 28.929C19.071 28.929 18.7337 29.017 18.4404 29.193C18.147 29.369 17.916 29.6147 17.7474 29.93C17.5787 30.238 17.4944 30.5937 17.4944 30.997C17.4944 31.4003 17.5787 31.756 17.7474 32.064C17.916 32.372 18.147 32.614 18.4404 32.79C18.7337 32.966 19.071 33.054 19.4524 33.054ZM25.5772 34C25.2546 34 24.9686 33.912 24.7192 33.736C24.4699 33.56 24.2756 33.3217 24.1362 33.021C23.9969 32.713 23.9272 32.361 23.9272 31.965V25.959C23.9272 25.7977 23.9786 25.6657 24.0812 25.563C24.1839 25.4603 24.3159 25.409 24.4772 25.409C24.6386 25.409 24.7706 25.4603 24.8732 25.563C24.9759 25.6657 25.0272 25.7977 25.0272 25.959V31.965C25.0272 32.2363 25.0786 32.46 25.1812 32.636C25.2839 32.812 25.4159 32.9 25.5772 32.9H25.8522C25.9989 32.9 26.1162 32.9513 26.2042 33.054C26.2996 33.1567 26.3472 33.2887 26.3472 33.45C26.3472 33.6113 26.2776 33.7433 26.1382 33.846C25.9989 33.9487 25.8192 34 25.5992 34H25.5772ZM29.8401 34.044C29.2681 34.044 28.7511 33.912 28.2891 33.648C27.8344 33.3767 27.4714 33.01 27.2001 32.548C26.9361 32.086 26.8041 31.5653 26.8041 30.986C26.8041 30.4067 26.9251 29.8897 27.1671 29.435C27.4164 28.973 27.7537 28.61 28.1791 28.346C28.6044 28.0747 29.0847 27.939 29.6201 27.939C30.0527 27.939 30.4524 28.0307 30.8191 28.214C31.1857 28.39 31.4937 28.632 31.7431 28.94V25.97C31.7431 25.8013 31.7944 25.6657 31.8971 25.563C32.0071 25.4603 32.1427 25.409 32.3041 25.409C32.4727 25.409 32.6084 25.4603 32.7111 25.563C32.8137 25.6657 32.8651 25.8013 32.8651 25.97V30.986C32.8651 31.5653 32.7294 32.086 32.4581 32.548C32.1941 33.01 31.8347 33.3767 31.3801 33.648C30.9254 33.912 30.4121 34.044 29.8401 34.044ZM29.8401 33.054C30.2141 33.054 30.5477 32.966 30.8411 32.79C31.1344 32.6067 31.3654 32.3573 31.5341 32.042C31.7027 31.7267 31.7871 31.3747 31.7871 30.986C31.7871 30.59 31.7027 30.238 31.5341 29.93C31.3654 29.622 31.1344 29.38 30.8411 29.204C30.5477 29.0207 30.2141 28.929 29.8401 28.929C29.4734 28.929 29.1397 29.0207 28.8391 29.204C28.5457 29.38 28.3111 29.622 28.1351 29.93C27.9664 30.238 27.8821 30.59 27.8821 30.986C27.8821 31.3747 27.9664 31.7267 28.1351 32.042C28.3111 32.3573 28.5457 32.6067 28.8391 32.79C29.1397 32.966 29.4734 33.054 29.8401 33.054Z" fill="black"/>
<path d="M19.046 46.8L18.364 46.052L21.741 43.038C21.851 42.9353 21.972 42.8877 22.104 42.895C22.2433 42.9023 22.3607 42.961 22.456 43.071C22.5587 43.181 22.6063 43.302 22.599 43.434C22.5917 43.566 22.533 43.6833 22.423 43.786L19.046 46.8ZM18.529 49C18.3677 49 18.2357 48.9523 18.133 48.857C18.0377 48.7543 17.99 48.6223 17.99 48.461V40.948C17.99 40.7867 18.0377 40.6583 18.133 40.563C18.2357 40.4603 18.3677 40.409 18.529 40.409C18.6903 40.409 18.8187 40.4603 18.914 40.563C19.0167 40.6583 19.068 40.7867 19.068 40.948V48.461C19.068 48.6223 19.0167 48.7543 18.914 48.857C18.8187 48.9523 18.6903 49 18.529 49ZM22.456 48.945C22.3387 49.0403 22.2067 49.0807 22.06 49.066C21.9207 49.0587 21.8033 48.9963 21.708 48.879L19.475 46.118L20.245 45.392L22.533 48.208C22.6283 48.3253 22.6687 48.4537 22.654 48.593C22.6467 48.725 22.5807 48.8423 22.456 48.945ZM24.7917 45.238C24.7917 44.798 24.898 44.4057 25.1107 44.061C25.3307 43.709 25.624 43.4303 25.9907 43.225C26.3574 43.0197 26.7607 42.917 27.2007 42.917C27.6407 42.917 27.967 42.9903 28.1797 43.137C28.3997 43.2763 28.484 43.445 28.4327 43.643C28.4107 43.7457 28.3667 43.8263 28.3007 43.885C28.242 43.9363 28.1724 43.9693 28.0917 43.984C28.011 43.9987 27.923 43.995 27.8277 43.973C27.3584 43.8777 26.9367 43.8703 26.5627 43.951C26.1887 44.0317 25.8917 44.182 25.6717 44.402C25.459 44.622 25.3527 44.9007 25.3527 45.238H24.7917ZM24.8027 49C24.6267 49 24.491 48.956 24.3957 48.868C24.3004 48.7727 24.2527 48.6333 24.2527 48.45V43.533C24.2527 43.357 24.3004 43.2213 24.3957 43.126C24.491 43.0307 24.6267 42.983 24.8027 42.983C24.986 42.983 25.1217 43.0307 25.2097 43.126C25.305 43.214 25.3527 43.3497 25.3527 43.533V48.45C25.3527 48.626 25.305 48.7617 25.2097 48.857C25.1217 48.9523 24.986 49 24.8027 49ZM31.9889 49.044C31.3802 49.044 30.8375 48.9157 30.3609 48.659C29.8915 48.395 29.5212 48.0357 29.2499 47.581C28.9859 47.119 28.8539 46.591 28.8539 45.997C28.8539 45.3957 28.9785 44.8677 29.2279 44.413C29.4845 43.951 29.8365 43.5917 30.2839 43.335C30.7312 43.071 31.2445 42.939 31.8239 42.939C32.3959 42.939 32.8872 43.0673 33.2979 43.324C33.7085 43.5733 34.0202 43.9217 34.2329 44.369C34.4529 44.809 34.5629 45.3187 34.5629 45.898C34.5629 46.0373 34.5152 46.1547 34.4199 46.25C34.3245 46.338 34.2035 46.382 34.0569 46.382H29.6239V45.502H34.0239L33.5729 45.81C33.5655 45.4433 33.4922 45.117 33.3529 44.831C33.2135 44.5377 33.0155 44.3067 32.7589 44.138C32.5022 43.9693 32.1905 43.885 31.8239 43.885C31.4059 43.885 31.0465 43.9767 30.7459 44.16C30.4525 44.3433 30.2289 44.5963 30.0749 44.919C29.9209 45.2343 29.8439 45.5937 29.8439 45.997C29.8439 46.4003 29.9355 46.7597 30.1189 47.075C30.3022 47.3903 30.5552 47.6397 30.8779 47.823C31.2005 48.0063 31.5709 48.098 31.9889 48.098C32.2162 48.098 32.4472 48.0577 32.6819 47.977C32.9239 47.889 33.1182 47.79 33.2649 47.68C33.3749 47.5993 33.4922 47.559 33.6169 47.559C33.7489 47.5517 33.8625 47.5883 33.9579 47.669C34.0825 47.779 34.1485 47.9 34.1559 48.032C34.1632 48.164 34.1045 48.2777 33.9799 48.373C33.7305 48.571 33.4189 48.7323 33.0449 48.857C32.6782 48.9817 32.3262 49.044 31.9889 49.044ZM38.2871 49.044C37.7517 49.044 37.2714 48.912 36.8461 48.648C36.4207 48.3767 36.0834 48.0137 35.8341 47.559C35.5921 47.097 35.4711 46.5763 35.4711 45.997C35.4711 45.4177 35.6031 44.897 35.8671 44.435C36.1384 43.973 36.5014 43.61 36.9561 43.346C37.4181 43.0747 37.9351 42.939 38.5071 42.939C39.0791 42.939 39.5924 43.0747 40.0471 43.346C40.5017 43.61 40.8611 43.973 41.1251 44.435C41.3964 44.897 41.5321 45.4177 41.5321 45.997H41.1031C41.1031 46.5763 40.9784 47.097 40.7291 47.559C40.4871 48.0137 40.1534 48.3767 39.7281 48.648C39.3027 48.912 38.8224 49.044 38.2871 49.044ZM38.5071 48.054C38.8811 48.054 39.2147 47.966 39.5081 47.79C39.8014 47.6067 40.0324 47.361 40.2011 47.053C40.3697 46.7377 40.4541 46.3857 40.4541 45.997C40.4541 45.601 40.3697 45.249 40.2011 44.941C40.0324 44.6257 39.8014 44.38 39.5081 44.204C39.2147 44.0207 38.8811 43.929 38.5071 43.929C38.1404 43.929 37.8067 44.0207 37.5061 44.204C37.2127 44.38 36.9781 44.6257 36.8021 44.941C36.6334 45.249 36.5491 45.601 36.5491 45.997C36.5491 46.3857 36.6334 46.7377 36.8021 47.053C36.9781 47.361 37.2127 47.6067 37.5061 47.79C37.8067 47.966 38.1404 48.054 38.5071 48.054ZM40.9711 49.011C40.8097 49.011 40.6741 48.9597 40.5641 48.857C40.4614 48.747 40.4101 48.6113 40.4101 48.45V46.767L40.6191 45.601L41.5321 45.997V48.45C41.5321 48.6113 41.4771 48.747 41.3671 48.857C41.2644 48.9597 41.1324 49.011 40.9711 49.011ZM45.3909 49C45.0242 49 44.6942 48.9083 44.4009 48.725C44.1076 48.5343 43.8766 48.2777 43.7079 47.955C43.5392 47.6323 43.4549 47.2693 43.4549 46.866V41.619C43.4549 41.4577 43.5062 41.3257 43.6089 41.223C43.7116 41.1203 43.8436 41.069 44.0049 41.069C44.1662 41.069 44.2982 41.1203 44.4009 41.223C44.5036 41.3257 44.5549 41.4577 44.5549 41.619V46.866C44.5549 47.1593 44.6356 47.405 44.7969 47.603C44.9582 47.801 45.1562 47.9 45.3909 47.9H45.7649C45.8969 47.9 46.0069 47.9513 46.0949 48.054C46.1902 48.1567 46.2379 48.2887 46.2379 48.45C46.2379 48.6113 46.1756 48.7433 46.0509 48.846C45.9336 48.9487 45.7796 49 45.5889 49H45.3909ZM42.9489 44.149C42.7949 44.149 42.6702 44.105 42.5749 44.017C42.4796 43.929 42.4319 43.819 42.4319 43.687C42.4319 43.5403 42.4796 43.423 42.5749 43.335C42.6702 43.247 42.7949 43.203 42.9489 43.203H45.4899C45.6439 43.203 45.7686 43.247 45.8639 43.335C45.9592 43.423 46.0069 43.5403 46.0069 43.687C46.0069 43.819 45.9592 43.929 45.8639 44.017C45.7686 44.105 45.6439 44.149 45.4899 44.149H42.9489ZM48.288 49C48.1266 49 47.991 48.9487 47.881 48.846C47.7783 48.736 47.727 48.6003 47.727 48.439V43.544C47.727 43.3753 47.7783 43.2397 47.881 43.137C47.991 43.0343 48.1266 42.983 48.288 42.983C48.4566 42.983 48.5923 43.0343 48.695 43.137C48.7976 43.2397 48.849 43.3753 48.849 43.544V48.439C48.849 48.6003 48.7976 48.736 48.695 48.846C48.5923 48.9487 48.4566 49 48.288 49ZM48.288 42.004C48.09 42.004 47.9176 41.9343 47.771 41.795C47.6316 41.6483 47.562 41.476 47.562 41.278C47.562 41.08 47.6316 40.9113 47.771 40.772C47.9176 40.6253 48.09 40.552 48.288 40.552C48.486 40.552 48.6546 40.6253 48.794 40.772C48.9406 40.9113 49.014 41.08 49.014 41.278C49.014 41.476 48.9406 41.6483 48.794 41.795C48.6546 41.9343 48.486 42.004 48.288 42.004ZM52.9713 48.989C52.744 48.989 52.568 48.868 52.4433 48.626L50.1113 43.709C50.0526 43.5843 50.0453 43.4633 50.0893 43.346C50.1406 43.2213 50.236 43.126 50.3753 43.06C50.5 42.994 50.6246 42.983 50.7493 43.027C50.8813 43.071 50.9803 43.1553 51.0463 43.28L53.2243 47.977H52.6963L54.8523 43.28C54.9183 43.1553 55.0173 43.071 55.1493 43.027C55.2886 42.983 55.428 42.994 55.5673 43.06C55.6993 43.1187 55.7873 43.2103 55.8313 43.335C55.8753 43.4597 55.868 43.5843 55.8093 43.709L53.4773 48.626C53.3673 48.868 53.1986 48.989 52.9713 48.989ZM59.5748 49.044C58.9661 49.044 58.4235 48.9157 57.9468 48.659C57.4775 48.395 57.1071 48.0357 56.8358 47.581C56.5718 47.119 56.4398 46.591 56.4398 45.997C56.4398 45.3957 56.5645 44.8677 56.8138 44.413C57.0705 43.951 57.4225 43.5917 57.8698 43.335C58.3171 43.071 58.8305 42.939 59.4098 42.939C59.9818 42.939 60.4731 43.0673 60.8838 43.324C61.2945 43.5733 61.6061 43.9217 61.8188 44.369C62.0388 44.809 62.1488 45.3187 62.1488 45.898C62.1488 46.0373 62.1011 46.1547 62.0058 46.25C61.9105 46.338 61.7895 46.382 61.6428 46.382H57.2098V45.502H61.6098L61.1588 45.81C61.1515 45.4433 61.0781 45.117 60.9388 44.831C60.7995 44.5377 60.6015 44.3067 60.3448 44.138C60.0881 43.9693 59.7765 43.885 59.4098 43.885C58.9918 43.885 58.6325 43.9767 58.3318 44.16C58.0385 44.3433 57.8148 44.5963 57.6608 44.919C57.5068 45.2343 57.4298 45.5937 57.4298 45.997C57.4298 46.4003 57.5215 46.7597 57.7048 47.075C57.8881 47.3903 58.1411 47.6397 58.4638 47.823C58.7865 48.0063 59.1568 48.098 59.5748 48.098C59.8021 48.098 60.0331 48.0577 60.2678 47.977C60.5098 47.889 60.7041 47.79 60.8508 47.68C60.9608 47.5993 61.0781 47.559 61.2028 47.559C61.3348 47.5517 61.4485 47.5883 61.5438 47.669C61.6685 47.779 61.7345 47.9 61.7418 48.032C61.7491 48.164 61.6905 48.2777 61.5658 48.373C61.3165 48.571 61.0048 48.7323 60.6308 48.857C60.2641 48.9817 59.9121 49.044 59.5748 49.044Z" fill="black"/>
</svg>
